<?xml version="1.0" encoding="utf-8"?>
<!-- Generator: Adobe Illustrator 16.0.0, SVG Export Plug-In . SVG Version: 6.00 Build 0)  -->
<!DOCTYPE svg PUBLIC "-//W3C//DTD SVG 1.1//EN" "http://www.w3.org/Graphics/SVG/1.1/DTD/svg11.dtd">
<svg version="1.1" id="Layer_1" xmlns="http://www.w3.org/2000/svg" xmlns:xlink="http://www.w3.org/1999/xlink" x="0px" y="0px"
	 width="309.142px" height="346.428px" viewBox="0 0 309.142 346.428" enable-background="new 0 0 309.142 346.428"
	 xml:space="preserve">
<path fill="#FFFFFF" stroke="#000000" stroke-width="6.831" stroke-miterlimit="10" d="M307.142,0c0,0,0,33-82.144,33
	c-69.285,0-69.285-33-69.285-33h-1.286c0,0,0,33-82.144,33c-0.155,0-0.303-0.003-0.458-0.003c-0.183,0-0.359,0.003-0.542,0.003
	C2,33,2,0,2,0v346.428h307.142V0H307.142z"/>
<path fill="#FFFFFF" stroke="#000000" stroke-width="6.831" stroke-miterlimit="10" d="M71.827,32.997
	c0.154,0,0.303,0.003,0.458,0.003c82.144,0,82.144-33,82.144-33h-1C153.428,0,153.421,32.85,71.827,32.997z"/>
<path fill="#FFFFFF" stroke="#000000" stroke-width="6.831" stroke-miterlimit="10" d="M71.285,33c0.184,0,0.359-0.003,0.542-0.003
	C3.006,32.85,3,0,3,0H2C2,0,2,33,71.285,33z"/>
</svg>
